<svg width="20" height="21" viewBox="0 0 20 21" fill="none" xmlns="http://www.w3.org/2000/svg">
<path d="M17.9101 6.04688C17.7409 5.85156 17.5423 5.70182 17.3144 5.59766C17.0866 5.49349 16.8424 5.44141 16.582 5.44141H7.6367C7.46743 5.44141 7.32095 5.50325 7.19725 5.62695C7.07355 5.75065 7.0117 5.90365 7.0117 6.08594C7.0117 6.25521 7.07355 6.40169 7.19725 6.52539C7.32095 6.64909 7.46743 6.71094 7.6367 6.71094H16.582C16.6862 6.71094 16.7676 6.73372 16.8262 6.7793C16.8848 6.82487 16.9336 6.86068 16.9726 6.88672C16.9987 6.92578 17.0247 6.97786 17.0508 7.04297C17.0768 7.10807 17.0833 7.19271 17.0703 7.29688L16.289 12.8633C16.25 13.0846 16.1491 13.2669 15.9863 13.4102C15.8236 13.5534 15.6315 13.625 15.4101 13.625H6.32811C6.09373 13.625 5.89517 13.5469 5.73241 13.3906C5.56965 13.2344 5.47524 13.0391 5.4492 12.8047L4.64842 3.05859C4.6354 2.91536 4.58006 2.78841 4.48241 2.67773C4.38475 2.56706 4.27082 2.4987 4.14061 2.47266L2.40233 2.17969C2.23306 2.15365 2.07681 2.18945 1.93358 2.28711C1.79035 2.38477 1.70571 2.51823 1.67967 2.6875C1.65363 2.86979 1.68944 3.03255 1.78709 3.17578C1.88475 3.31901 2.01821 3.40365 2.18748 3.42969L3.43748 3.66406L4.1992 12.9219C4.25129 13.4818 4.47915 13.9538 4.8828 14.3379C5.28644 14.722 5.76821 14.9141 6.32811 14.9141H15.4101C15.944 14.9141 16.4095 14.735 16.8066 14.377C17.2038 14.0189 17.4414 13.5794 17.5195 13.0586L18.3203 7.47266C18.3594 7.21224 18.3431 6.95833 18.2715 6.71094C18.1999 6.46354 18.0794 6.24219 17.9101 6.04688ZM4.92186 17.5508C4.92186 17.1862 5.04556 16.8802 5.29295 16.6328C5.54035 16.3854 5.83983 16.2617 6.19139 16.2617C6.52993 16.2617 6.8229 16.3854 7.0703 16.6328C7.31769 16.8802 7.44139 17.1862 7.44139 17.5508C7.44139 17.9023 7.31769 18.2051 7.0703 18.459C6.8229 18.7129 6.52993 18.8398 6.19139 18.8398C5.83983 18.8398 5.54035 18.7129 5.29295 18.459C5.04556 18.2051 4.92186 17.9023 4.92186 17.5508ZM14.2969 17.5508C14.2969 17.1862 14.4206 16.8802 14.668 16.6328C14.9153 16.3854 15.2148 16.2617 15.5664 16.2617C15.918 16.2617 16.2142 16.3854 16.4551 16.6328C16.6959 16.8802 16.8164 17.1862 16.8164 17.5508C16.8164 17.9023 16.6959 18.2051 16.4551 18.459C16.2142 18.7129 15.918 18.8398 15.5664 18.8398C15.2148 18.8398 14.9153 18.7129 14.668 18.459C14.4206 18.2051 14.2969 17.9023 14.2969 17.5508ZM14.707 9.21094C14.707 9.39323 14.6452 9.54622 14.5215 9.66992C14.3978 9.79362 14.2513 9.85547 14.082 9.85547H11.7773C11.595 9.85547 11.4453 9.79362 11.3281 9.66992C11.2109 9.54622 11.1523 9.39323 11.1523 9.21094C11.1523 9.04167 11.2109 8.89518 11.3281 8.77148C11.4453 8.64779 11.595 8.58594 11.7773 8.58594H14.082C14.2513 8.58594 14.3978 8.64779 14.5215 8.77148C14.6452 8.89518 14.707 9.04167 14.707 9.21094Z" fill="black"/>
</svg>
