<svg width="142" height="45" viewBox="0 0 142 45" fill="none" xmlns="http://www.w3.org/2000/svg">
<g clip-path="url(#clip0_1_1222)">
<g clip-path="url(#clip1_1_1222)">
<g clip-path="url(#clip2_1_1222)">
<path d="M7.22833 44.1886C3.50627 44.1886 0.489075 41.1714 0.489075 37.4493C0.489075 33.4074 3.76574 30.1308 7.8077 30.1308H13.9676V37.4493C13.9681 41.171 10.9504 44.1886 7.22833 44.1886Z" fill="#FBBB00"/>
<path d="M35.7045 15.5605C35.7045 22.0716 32.0045 27.6826 24.7369 29.5008C23.1206 29.9106 21.331 30.1303 19.3685 30.1303H14.0292V16.2762H13.9889C13.9889 16.2762 13.9833 16.2762 13.9772 16.2762C13.5384 16.2241 13.0939 16.2012 12.6438 16.2012C6.32279 16.2012 1.13334 21.0272 0.550232 27.1862V7.01477C0.550232 3.58871 3.32762 0.811798 6.75368 0.811798H19.369C30.1741 0.811798 35.7045 6.87848 35.7045 15.5605Z" fill="#FBBB00"/>
<path d="M45.7371 7.04433H53.011V37.1731H45.7371V7.04433ZM50.2994 13.027V7.04433H56.1961C58.7499 7.04433 60.8875 7.44604 62.6092 8.24948C64.3595 9.02422 65.6795 10.1433 66.569 11.6067C67.4584 13.0701 67.9032 14.8348 67.9032 16.9007C67.9032 18.9093 67.4584 20.6597 66.569 22.1518C65.6795 23.6152 64.3595 24.7486 62.6092 25.552C60.8875 26.3267 58.7499 26.7141 56.1961 26.7141H50.2994V20.7314H56.1961C57.6594 20.7314 58.8072 20.4015 59.6393 19.7415C60.4715 19.0815 60.8875 18.1346 60.8875 16.9007C60.8875 15.6382 60.4715 14.677 59.6393 14.017C58.8072 13.357 57.6594 13.027 56.1961 13.027H50.2994ZM71.5207 9.92809C71.5207 8.8951 71.8937 8.06297 72.6398 7.4317C73.3858 6.77174 74.2754 6.44176 75.3084 6.44176C76.37 6.44176 77.2595 6.77174 77.9769 7.4317C78.7229 8.06297 79.096 8.8951 79.096 9.92809C79.096 10.9611 78.7229 11.8075 77.9769 12.4675C77.2595 13.1275 76.37 13.4575 75.3084 13.4575C74.2754 13.4575 73.3858 13.1275 72.6398 12.4675C71.8937 11.8075 71.5207 10.9611 71.5207 9.92809ZM72.1664 17.3742H78.4504V37.1731H72.1664V17.3742ZM96.5003 17.3742H103.731L96.156 27.0154L104.161 37.1731H96.9307L92.7988 31.4056L88.7529 37.1731H81.2638L89.3985 27.0154L81.6942 17.3742H89.1833L92.7988 22.5822L96.5003 17.3742ZM106.323 9.92809C106.323 8.8951 106.697 8.06297 107.442 7.4317C108.189 6.77174 109.078 6.44176 110.111 6.44176C111.173 6.44176 112.062 6.77174 112.779 7.4317C113.526 8.06297 113.899 8.8951 113.899 9.92809C113.899 10.9611 113.526 11.8075 112.779 12.4675C112.062 13.1275 111.173 13.4575 110.111 13.4575C109.078 13.4575 108.189 13.1275 107.442 12.4675C106.697 11.8075 106.323 10.9611 106.323 9.92809ZM106.969 17.3742H113.253V37.1731H106.969V17.3742ZM117.444 27.2737C117.444 25.179 117.932 23.3569 118.907 21.8074C119.883 20.258 121.231 19.0528 122.953 18.192C124.674 17.3312 126.611 16.9007 128.763 16.9007C130.915 16.9007 132.839 17.3312 134.531 18.192C136.253 19.0528 137.601 20.258 138.577 21.8074C139.581 23.3569 140.083 25.179 140.083 27.2737C140.083 29.3396 139.581 31.1474 138.577 32.6968C137.601 34.2463 136.253 35.4515 134.531 36.3123C132.839 37.1731 130.915 37.6035 128.763 37.6035C126.611 37.6035 124.674 37.1731 122.953 36.3123C121.231 35.4515 119.883 34.2463 118.907 32.6968C117.932 31.1474 117.444 29.3396 117.444 27.2737ZM124.115 27.2737C124.115 28.3066 124.33 29.1961 124.761 29.9422C125.191 30.6595 125.75 31.2191 126.439 31.6208C127.128 32.0226 127.903 32.2234 128.763 32.2234C129.596 32.2234 130.356 32.0226 131.045 31.6208C131.763 31.2191 132.322 30.6595 132.723 29.9422C133.154 29.1961 133.369 28.3066 133.369 27.2737C133.369 26.2407 133.154 25.3512 132.723 24.6051C132.322 23.859 131.763 23.2852 131.045 22.8835C130.356 22.4817 129.596 22.2809 128.763 22.2809C127.903 22.2809 127.128 22.4817 126.439 22.8835C125.75 23.2852 125.191 23.859 124.761 24.6051C124.33 25.3512 124.115 26.2407 124.115 27.2737Z" fill="black"/>
</g>
</g>
</g>
<defs>
<clipPath id="clip0_1_1222">
<rect width="141.84" height="45" fill="white"/>
</clipPath>
<clipPath id="clip1_1_1222">
<rect width="141.84" height="45" fill="white"/>
</clipPath>
<clipPath id="clip2_1_1222">
<rect width="141.84" height="44.9975" fill="white" transform="translate(0 0.00123596)"/>
</clipPath>
</defs>
</svg>
