<svg width="20" height="21" viewBox="0 0 20 21" fill="none" xmlns="http://www.w3.org/2000/svg">
<path d="M8.92578 2.23828C8.26172 2.3164 7.63346 2.46289 7.04102 2.67773C6.44857 2.89258 5.89193 3.16927 5.37109 3.50781L5.39062 3.48828C4.92188 3.8138 4.48893 4.17187 4.0918 4.5625C3.69466 4.95312 3.33984 5.3763 3.02734 5.83203L3.00781 5.87109C2.66927 6.39193 2.38932 6.96159 2.16797 7.58008C1.94661 8.19857 1.80339 8.84635 1.73828 9.52344V9.54297C1.71224 9.80338 1.70247 10.1387 1.70898 10.5488C1.71549 10.959 1.73828 11.2878 1.77734 11.5352C1.92057 12.4336 2.20052 13.2734 2.61719 14.0547C3.03385 14.849 3.55469 15.5456 4.17969 16.1445C4.80469 16.7435 5.51432 17.2383 6.30859 17.6289C7.10286 18.0065 7.94922 18.2539 8.84766 18.3711H8.88672C9.09505 18.3841 9.39779 18.3939 9.79492 18.4004C10.1921 18.4069 10.5013 18.3971 10.7227 18.3711C11.3216 18.293 11.8913 18.1628 12.4316 17.9805C12.972 17.7982 13.4831 17.5638 13.9648 17.2773L13.9258 17.2969C14.0951 17.1927 14.2546 17.0885 14.4043 16.9844C14.554 16.8802 14.7005 16.7826 14.8438 16.6914L14.8047 16.7109C14.8307 16.6849 14.8991 16.7207 15.0098 16.8184C15.1204 16.916 15.4232 17.2057 15.918 17.6875C16.7383 18.4948 17.2396 18.9863 17.4219 19.1621C17.6042 19.3379 17.7409 19.4388 17.832 19.4648C17.8841 19.4909 17.9264 19.5007 17.959 19.4941C17.9915 19.4876 18.0404 19.4714 18.1055 19.4453C18.3138 19.3802 18.4603 19.2565 18.5449 19.0742C18.6296 18.8919 18.6263 18.7227 18.5352 18.5664C18.5091 18.5404 18.3594 18.3874 18.0859 18.1074C17.8125 17.8275 17.4935 17.5052 17.1289 17.1406C16.7643 16.776 16.4518 16.4635 16.1914 16.2031C15.931 15.9427 15.8008 15.8125 15.8008 15.8125C15.8008 15.7995 15.8236 15.7637 15.8691 15.7051C15.9147 15.6465 15.9701 15.5781 16.0352 15.5C16.543 14.888 16.9531 14.2142 17.2656 13.4785C17.5781 12.7428 17.7799 11.9909 17.8711 11.2227C17.8971 11.0013 17.9069 10.6921 17.9004 10.2949C17.8939 9.89779 17.8841 9.59505 17.8711 9.38672C17.7799 8.61849 17.5911 7.88932 17.3047 7.19922C17.0052 6.50911 16.6276 5.87435 16.1719 5.29492C15.7161 4.71549 15.1888 4.20443 14.5898 3.76172C13.9779 3.30599 13.3073 2.94792 12.5781 2.6875C12.3698 2.60937 12.1354 2.5345 11.875 2.46289C11.6146 2.39128 11.3542 2.33594 11.0938 2.29687L11.0352 2.27734C10.8268 2.2513 10.4785 2.23177 9.99023 2.21875C9.50195 2.20573 9.14714 2.21224 8.92578 2.23828ZM10.4492 3.46875C11.0221 3.52083 11.569 3.64453 12.0898 3.83984C12.6107 4.02213 13.0957 4.25976 13.5449 4.55273C13.9941 4.8457 14.4076 5.1875 14.7852 5.57812C15.1497 5.96875 15.4688 6.39844 15.7422 6.86719L15.7617 6.88672C16.0352 7.35547 16.25 7.86003 16.4062 8.40039C16.5625 8.94075 16.6471 9.50391 16.6602 10.0898V10.1094C16.6602 10.1354 16.6602 10.168 16.6602 10.207C16.6602 10.2461 16.6602 10.2852 16.6602 10.3242C16.6602 11.2617 16.4779 12.1471 16.1133 12.9805C15.7617 13.8138 15.2767 14.5397 14.6582 15.1582C14.0397 15.7767 13.3138 16.2682 12.4805 16.6328C11.6471 16.9844 10.7552 17.1602 9.80469 17.1602C9.80469 17.1602 9.80143 17.1602 9.79492 17.1602C9.78841 17.1602 9.78516 17.1602 9.78516 17.1602C8.83464 17.1602 7.94271 16.9779 7.10938 16.6133C6.27604 16.2487 5.55339 15.7539 4.94141 15.1289C4.31641 14.5169 3.82812 13.7943 3.47656 12.9609C3.125 12.1276 2.94922 11.2422 2.94922 10.3047C2.94922 9.75781 3.01107 9.22721 3.13477 8.71289C3.25846 8.19857 3.4375 7.70703 3.67188 7.23828L3.65234 7.27734C3.83464 6.89974 4.0332 6.56771 4.24805 6.28125C4.46289 5.99479 4.72005 5.70182 5.01953 5.40234C5.31901 5.10286 5.59896 4.86198 5.85938 4.67969C6.11979 4.49739 6.42578 4.32161 6.77734 4.15234C7.22005 3.93099 7.69857 3.75846 8.21289 3.63476C8.72721 3.51107 9.26432 3.44922 9.82422 3.44922C9.92839 3.44922 10.0358 3.44922 10.1465 3.44922C10.2572 3.44922 10.3711 3.45573 10.4883 3.46875H10.4492Z" fill="black"/>
</svg>
