<svg width="20" height="21" viewBox="0 0 20 21" fill="none" xmlns="http://www.w3.org/2000/svg">
<path d="M6.52346 2.39453C5.57294 2.47266 4.71031 2.77214 3.93557 3.29297C3.16083 3.8138 2.55861 4.4974 2.12893 5.34375C1.80341 5.99479 1.59833 6.69466 1.51369 7.44336C1.42906 8.19206 1.47137 8.95052 1.64065 9.71875C1.77085 10.3568 2.0215 11.0306 2.3926 11.7402C2.76369 12.4499 3.20315 13.1107 3.71096 13.7227C4.0495 14.1263 4.54429 14.6178 5.19533 15.1973C5.84637 15.7767 6.52997 16.3398 7.24611 16.8867C7.59768 17.1602 8.05015 17.4792 8.60354 17.8438C9.15692 18.2083 9.51825 18.4362 9.68752 18.5273C9.85679 18.6055 9.99351 18.6348 10.0977 18.6152C10.2018 18.5957 10.4037 18.4883 10.7031 18.293C11.5625 17.7591 12.3666 17.2025 13.1153 16.623C13.864 16.0436 14.5834 15.4284 15.2735 14.7773C15.9375 14.1523 16.4877 13.5241 16.9238 12.8926C17.36 12.2611 17.7344 11.5482 18.0469 10.7539C18.2813 10.168 18.431 9.56901 18.4961 8.95703C18.5612 8.34505 18.5449 7.74609 18.4473 7.16016C18.3496 6.57422 18.1771 6.01432 17.9297 5.48047C17.6823 4.95964 17.3633 4.48438 16.9727 4.05469C16.4258 3.48177 15.765 3.04883 14.9903 2.75586C14.2155 2.46289 13.4115 2.34245 12.5781 2.39453C12.1745 2.43359 11.7871 2.50521 11.416 2.60938C11.0449 2.71354 10.6966 2.85677 10.3711 3.03906L10.3906 3.01953L9.98049 3.23438L9.88283 3.17578C9.71356 3.05859 9.46617 2.9349 9.14065 2.80469C8.81512 2.67448 8.51565 2.57682 8.24221 2.51172C8.07294 2.48568 7.8288 2.45312 7.50979 2.41406C7.19078 2.375 6.9857 2.36198 6.89455 2.375L6.52346 2.39453ZM7.89065 3.72266C8.19012 3.78776 8.47007 3.87565 8.73049 3.98633C8.99091 4.09701 9.2383 4.23047 9.47268 4.38672H9.45315C9.63544 4.50391 9.75588 4.57552 9.81447 4.60156C9.87307 4.6276 9.94794 4.63412 10.0391 4.62109C10.1042 4.62109 10.166 4.60807 10.2246 4.58203C10.2832 4.55599 10.3581 4.51042 10.4492 4.44531C10.7227 4.26302 10.9668 4.12305 11.1817 4.02539C11.3965 3.92773 11.6472 3.83984 11.9336 3.76172C12.0899 3.72266 12.2591 3.6901 12.4414 3.66406C12.6237 3.63802 12.8125 3.625 13.0078 3.625C13.125 3.625 13.2422 3.63151 13.3594 3.64453C13.4766 3.65755 13.5873 3.67057 13.6914 3.68359H13.6719C14.2057 3.77474 14.6973 3.94727 15.1465 4.20117C15.5957 4.45508 15.9701 4.77734 16.2696 5.16797C16.3998 5.32422 16.4974 5.45117 16.5625 5.54883C16.6276 5.64648 16.6992 5.77995 16.7774 5.94922C16.9466 6.28776 17.0768 6.65885 17.168 7.0625C17.2591 7.46615 17.3047 7.86328 17.3047 8.25391C17.3047 8.52734 17.2689 8.84961 17.1973 9.2207C17.1257 9.5918 17.0313 9.92708 16.9141 10.2266C16.6667 10.9036 16.3347 11.5417 15.918 12.1406C15.5013 12.7396 14.987 13.3255 14.375 13.8984C13.8151 14.4193 13.2324 14.9238 12.627 15.4121C12.0215 15.9004 11.3932 16.3594 10.7422 16.7891L10.625 16.8477L10 17.2773L9.41408 16.8867C8.77606 16.4701 8.1771 16.0436 7.61721 15.6074C7.05731 15.1712 6.51695 14.7188 5.99611 14.25L6.01565 14.2695C5.35158 13.6706 4.82424 13.1237 4.43361 12.6289C4.04299 12.1341 3.69794 11.5742 3.39846 10.9492C3.20315 10.5586 3.05666 10.2005 2.959 9.875C2.86135 9.54948 2.79299 9.19141 2.75393 8.80078C2.74091 8.70964 2.73114 8.61198 2.72463 8.50781C2.71812 8.40365 2.71486 8.29297 2.71486 8.17578C2.71486 7.78516 2.75718 7.40104 2.84182 7.02344C2.92645 6.64583 3.05341 6.28776 3.22268 5.94922L3.20315 5.98828C3.39846 5.58464 3.65236 5.22331 3.96486 4.9043C4.27736 4.58529 4.62242 4.32162 5.00002 4.11328L5.03908 4.09375C5.2344 4.0026 5.44924 3.91797 5.68361 3.83984C5.91799 3.76172 6.16539 3.70312 6.4258 3.66406L6.44533 3.64453C6.56252 3.63151 6.80666 3.63477 7.17775 3.6543C7.54885 3.67383 7.78648 3.69662 7.89065 3.72266ZM12.8516 5.77344C12.7344 5.82552 12.6465 5.91016 12.5879 6.02734C12.5293 6.14453 12.5 6.28125 12.5 6.4375C12.487 6.56771 12.513 6.67188 12.5781 6.75C12.6432 6.82812 12.7604 6.89974 12.9297 6.96484C13.1641 7.06901 13.3496 7.17643 13.4863 7.28711C13.6231 7.39779 13.7435 7.53776 13.8477 7.70703C13.9128 7.82422 13.9584 7.92513 13.9844 8.00977C14.0104 8.0944 14.043 8.22787 14.0821 8.41016C14.1211 8.64453 14.1862 8.80404 14.2774 8.88867C14.3685 8.97331 14.5117 9.01562 14.7071 9.01562C14.9675 9.0026 15.1465 8.92448 15.2442 8.78125C15.3418 8.63802 15.3581 8.40365 15.293 8.07812C15.2409 7.76562 15.14 7.47266 14.9903 7.19922C14.8405 6.92578 14.655 6.6849 14.4336 6.47656V6.45703C14.1732 6.20964 13.8835 6.01758 13.5645 5.88086C13.2455 5.74414 13.0078 5.70833 12.8516 5.77344Z" fill="black"/>
</svg>
